<svg width="21" height="19" viewBox="0 0 21 19" fill="none" xmlns="http://www.w3.org/2000/svg">
<mask id="path-1-inside-1_1_362" fill="white">
<path fill-rule="evenodd" clip-rule="evenodd" d="M19.3764 1.68186C21.5412 3.90213 21.5412 7.54338 19.3764 9.78586L10.4812 19L1.60755 9.80806C0.578719 8.72013 0 7.27695 0 5.74496C0 4.21297 0.557285 2.76979 1.60755 1.68186C3.75096 -0.560619 7.26614 -0.560619 9.43098 1.70406L10.4812 2.792L11.5315 1.68186C13.6964 -0.560619 17.2115 -0.560619 19.3764 1.68186Z"/>
</mask>
<path fill-rule="evenodd" clip-rule="evenodd" d="M19.3764 1.68186C21.5412 3.90213 21.5412 7.54338 19.3764 9.78586L10.4812 19L1.60755 9.80806C0.578719 8.72013 0 7.27695 0 5.74496C0 4.21297 0.557285 2.76979 1.60755 1.68186C3.75096 -0.560619 7.26614 -0.560619 9.43098 1.70406L10.4812 2.792L11.5315 1.68186C13.6964 -0.560619 17.2115 -0.560619 19.3764 1.68186Z" fill="black"/>
<path d="M19.3764 9.78586L20.4556 10.8277L20.4556 10.8277L19.3764 9.78586ZM19.3764 1.68186L18.2972 2.72369L18.3024 2.72903L19.3764 1.68186ZM10.4812 19L9.40207 20.0418L10.4812 21.1597L11.5604 20.0418L10.4812 19ZM1.60755 9.80806L0.517703 10.8387L0.523011 10.8443L0.528376 10.8499L1.60755 9.80806ZM1.60755 1.68186L2.68674 2.72368L2.6919 2.71829L1.60755 1.68186ZM9.43098 1.70406L8.34667 2.74056L8.3518 2.74587L9.43098 1.70406ZM10.4812 2.792L9.40207 3.83381L10.4922 4.96304L11.5709 3.82287L10.4812 2.792ZM11.5315 1.68186L10.4523 0.640044L10.4471 0.645489L10.4419 0.650987L11.5315 1.68186ZM20.4556 10.8277C23.1787 8.00689 23.186 3.44041 20.4504 0.634691L18.3024 2.72903C19.8964 4.36385 19.9037 7.07988 18.2972 8.74405L20.4556 10.8277ZM11.5604 20.0418L20.4556 10.8277L18.2972 8.74405L9.40207 17.9582L11.5604 20.0418ZM0.528376 10.8499L9.40207 20.0418L11.5604 17.9582L2.68673 8.76625L0.528376 10.8499ZM-1.5 5.74496C-1.5 7.6586 -0.775673 9.47103 0.517703 10.8387L2.6974 8.77742C1.93311 7.96922 1.5 6.8953 1.5 5.74496H-1.5ZM0.528376 0.640044C-0.805614 2.02188 -1.5 3.84458 -1.5 5.74496H1.5C1.5 4.58136 1.92018 3.51771 2.68673 2.72367L0.528376 0.640044ZM10.5153 0.667571C7.76361 -2.21099 3.26133 -2.21926 0.52321 0.645422L2.6919 2.71829C4.24058 1.09803 6.76867 1.08975 8.34669 2.74055L10.5153 0.667571ZM11.5604 1.75018L10.5102 0.662247L8.3518 2.74587L9.40207 3.83381L11.5604 1.75018ZM10.4419 0.650987L9.39161 1.76112L11.5709 3.82287L12.6211 2.71273L10.4419 0.650987ZM20.4556 0.640044C17.7009 -2.21335 13.2069 -2.21335 10.4523 0.640044L12.6107 2.72367C14.1858 1.09211 16.7221 1.09211 18.2972 2.72367L20.4556 0.640044Z" fill="black" mask="url(#path-1-inside-1_1_362)"/>
</svg>
